<?xml version="1.0" encoding="iso-8859-1"?>
<!-- Generator: Adobe Illustrator 19.0.0, SVG Export Plug-In . SVG Version: 6.00 Build 0)  -->
<svg xmlns="http://www.w3.org/2000/svg" xmlns:xlink="http://www.w3.org/1999/xlink" version="1.1" id="Layer_1" x="0px" y="0px" viewBox="0 0 512 512" style="enable-background:new 0 0 512 512;" xml:space="preserve" width="512" height="512">
<g id="honey">
	<g id="fill">
		<path style="fill:#BDEBFF;" d="M310.272,249.758H45.856c0,0-85.114,102.681,7.432,228.832    c9.325,12.711,24.144,20.236,39.909,20.236h169.733c15.765,0,30.584-7.525,39.909-20.236    C395.386,352.439,310.272,249.758,310.272,249.758z"/>
		<path style="fill:#92D8FF;" d="M199.112,304.159c63.163-17.481,111.161-54.401,111.161-54.401l0,0l0,0H45.856    c0,0-85.114,102.681,7.432,228.832c9.325,12.711,24.144,20.236,39.909,20.236h96.329c-27.611-30.388-42.333-62.429-49.795-91.182    C128.083,362.75,154.412,316.53,199.112,304.159z"/>
		<path style="fill:#D7F3FF;" d="M310.272,249.758H45.856c-21.096,0-38.356-17.26-38.356-38.357l0,0    c0-21.096,17.26-38.357,38.356-38.357h264.416c21.096,0,38.357,17.261,38.357,38.357l0,0    C348.629,232.497,331.368,249.758,310.272,249.758z"/>
		<path style="fill:#BDEBFF;" d="M85.436,211.401L85.436,211.401c0-21.096,17.26-38.357,38.356-38.357H45.857    c-21.096,0-38.357,17.26-38.357,38.357l0,0c0,21.096,17.26,38.357,38.357,38.357h77.936    C102.696,249.758,85.436,232.498,85.436,211.401z"/>
		<path style="fill:#FFDAAA;" d="M494.189,299.269c13.747,13.747,13.747,36.036,0,49.784c-13.747,13.747-36.036,13.747-49.783,0    c-13.747-13.747-168.648-178.717-148.791-198.575C315.472,130.621,480.442,285.522,494.189,299.269z"/>
		<circle style="fill:#FFDE55;" cx="277.29" cy="301.001" r="29.597"/>
		<path style="fill:#FFCD00;" d="M53.289,478.59c9.325,12.711,24.144,20.236,39.909,20.236h169.733    c15.765,0,30.584-7.525,39.909-20.236c37.604-51.258,45.876-98.642,42.444-136.836H10.844    C7.413,379.948,15.685,427.331,53.289,478.59z"/>
		<path style="fill:#FFB000;" d="M10.844,341.753c-3.432,38.195,4.84,85.578,42.444,136.836    c9.325,12.711,24.144,20.236,39.909,20.236h96.329c-27.611-30.388-42.333-62.429-49.795-91.182    c-6.03-23.238-1.864-46.82,9.738-65.89H10.844z"/>
		<path style="fill:#FFC477;" d="M494.189,349.053c3.995-3.995,6.821-8.714,8.494-13.733    c-64.192-33.863-117.322-89.857-136.957-112.858c-14.107-16.526-13.988-32.612-10.933-43.865    c-28.765-21.341-52.408-34.89-59.178-28.119c-19.857,19.857,135.044,184.827,148.791,198.574    C458.153,362.8,480.442,362.8,494.189,349.053z"/>
		<path style="fill:#C68D6D;" d="M343.283,168.815l-29.332,29.332c-6.729,6.729-17.638,6.729-24.367,0l-38.159-38.159l53.699-53.699    l38.159,38.159C350.012,151.176,350.012,162.086,343.283,168.815z"/>
		<path style="fill:#935B45;" d="M313.952,198.147l9.768-9.768c-2.38-8.561-1.586-17.923,2.678-26.166    c6.812-13.171,8.942-25.708,8.943-25.709l-30.215-30.216l-53.699,53.699l38.159,38.159    C296.313,204.875,307.223,204.875,313.952,198.147z"/>
		<path style="fill:#FFB864;" d="M193.531,161.945c16.321,16.321,35.277,27.605,54.196,33.465    c14.047,4.351,29.353,0.364,39.751-10.034l43.036-43.036c10.398-10.398,14.385-25.704,10.034-39.751    c-5.86-18.919-17.145-37.875-33.465-54.196c-16.321-16.321-35.277-27.605-54.196-33.465c-14.047-4.351-29.353-0.364-39.751,10.034    l-43.036,43.036c-10.398,10.398-14.385,25.704-10.034,39.751C165.926,126.668,177.21,145.624,193.531,161.945z"/>
		<path style="fill:#FFDE55;" d="M252.886,14.929c-14.047-4.351-29.353-0.364-39.751,10.034l-43.036,43.036    c-7.799,7.798-11.991,18.358-11.764,29.076l-0.009,0v167.332c0,16.278,13.318,29.597,29.597,29.597h0    c16.278,0,29.597-13.318,29.597-29.597V139.423c0-8.298,6.789-15.087,15.087-15.087l0,0c8.298,0,15.087,6.789,15.087,15.087v68.13    c0,16.278,13.319,29.597,29.597,29.597h0c16.278,0,29.597-13.319,29.597-29.597V48.205    C290.61,31.988,271.73,20.766,252.886,14.929z"/>
		<path style="fill:#FFCD00;" d="M158.335,97.074l-0.009,0v167.332c0,16.278,13.318,29.597,29.597,29.597h0    c5.251,0,10.19-1.392,14.478-3.817c-37.635-124.898,10.734-265.224,10.734-265.224l-43.036,43.036    C162.301,75.797,158.108,86.356,158.335,97.074z"/>
	</g>
	<g id="stroke">
		<path d="M258.721,428.088c4.143,0,7.5-3.358,7.5-7.5v-12.451c0-4.142-3.357-7.5-7.5-7.5c-4.143,0-7.5,3.358-7.5,7.5v12.451    C251.221,424.73,254.579,428.088,258.721,428.088z"/>
		<path d="M97.408,428.088c4.143,0,7.5-3.358,7.5-7.5v-12.451c0-4.142-3.357-7.5-7.5-7.5s-7.5,3.358-7.5,7.5v12.451    C89.908,424.73,93.265,428.088,97.408,428.088z"/>
		<path d="M150.551,426.517c8.1,6.283,17.807,9.424,27.514,9.424c9.707,0,19.414-3.141,27.514-9.424    c3.273-2.539,3.868-7.25,1.329-10.523c-2.538-3.274-7.251-3.868-10.522-1.33c-10.787,8.367-25.854,8.367-36.641,0    c-3.272-2.539-7.985-1.944-10.522,1.33C146.682,419.267,147.277,423.979,150.551,426.517z"/>
		<path d="M499.493,293.966c-9.963-9.963-74.897-70.797-127.288-111.548c-3.271-2.543-7.981-1.954-10.525,1.315    c-2.543,3.27-1.955,7.982,1.315,10.525c51.846,40.328,116.044,100.469,125.891,110.315c5.232,5.232,8.114,12.189,8.114,19.588    c0,7.399-2.881,14.356-8.114,19.588c-5.232,5.232-12.189,8.114-19.588,8.114c-7.4,0-14.356-2.881-19.589-8.114    c-7.754-7.754-84.663-89.175-125.116-145.638l23.993-23.993c4.671-4.671,7.244-10.881,7.244-17.487    c0-6.606-2.573-12.816-7.244-17.487l-3.839-3.839c5.403-10.716,6.603-23.185,2.964-34.935    c-6.445-20.808-22.056-43.932-35.339-57.268S275.818,14.18,255.105,7.765c-16.661-5.161-34.775-0.603-47.273,11.895    l-43.036,43.036c-9.047,9.047-14.124,21.47-13.965,34.139c-0.003,0.08-0.004,8.335-0.004,8.335c0,4.142,3.358,7.5,7.5,7.5    c4.142,0,7.5-3.358,7.5-7.5c0,0,0.011-8.08,0.007-8.254c-0.186-8.741,3.302-17.348,9.568-23.614l43.036-43.036    c8.551-8.55,20.901-11.682,32.229-8.173c17.504,5.422,34.29,15.517,48.72,29.274v156.187c0,12.184-9.913,22.097-22.097,22.097    c-12.184,0-22.097-9.913-22.097-22.097v-68.13c0-12.454-10.132-22.586-22.587-22.586c-12.455,0-22.587,10.132-22.587,22.586    v124.983c0,12.184-9.913,22.097-22.097,22.097c-12.184,0-22.097-9.913-22.097-22.097V138.749c0-4.142-3.358-7.5-7.5-7.5    c-4.142,0-7.5,3.358-7.5,7.5v26.795H45.856C20.571,165.545,0,186.116,0,211.401c0,20.721,13.819,38.267,32.721,43.93    c-7.439,11.568-18.708,32.31-25.156,59.825c-5.875,25.073-6.5,50.581-1.857,75.816c5.774,31.388,19.748,62.359,41.533,92.054    c10.703,14.589,27.883,23.299,45.957,23.299h169.732c18.074,0,35.253-8.71,45.957-23.299    c21.785-29.695,35.137-60.787,41.533-92.054c6.466-31.609,0.132-67.324-1.857-75.816c-6.451-27.529-17.727-48.278-25.167-59.842    c6.804-2.044,13.056-5.656,18.265-10.567c41.004,50.292,91.221,103.388,97.442,109.609c8.065,8.065,18.789,12.507,30.195,12.507    c11.406,0,22.13-4.442,30.195-12.507c8.065-8.065,12.507-18.789,12.507-30.195C512,312.755,507.558,302.031,499.493,293.966z     M337.98,149.751c1.838,1.837,2.85,4.281,2.85,6.88c0,2.599-1.012,5.043-2.85,6.88l-23.593,23.593v-18.03l21.43-21.43    c0.009-0.009,0.018-0.019,0.028-0.028L337.98,149.751z M325.21,137.038l-10.824,10.824v-79.66    c8.565,11.389,15.03,23.802,18.997,36.608C336.892,116.138,333.761,128.487,325.21,137.038z M264.199,242.258H225.02v-48.059    c4.976,2.543,10.046,4.734,15.173,6.58v6.775C240.193,223.402,250.186,236.954,264.199,242.258z M232.607,131.837    c4.183,0,7.587,3.403,7.587,7.586v45.273c-5.145-2.14-10.218-4.677-15.173-7.619v-37.654    C225.02,135.24,228.423,131.837,232.607,131.837z M15,211.401c0-17.014,13.842-30.857,30.856-30.857h104.97v61.713H45.856    C28.842,242.258,15,228.415,15,211.401z M336.866,334.253h-43.154c12.239-6.069,20.675-18.691,20.675-33.252    c0-20.456-16.642-37.097-37.097-37.097c-20.455,0-37.097,16.642-37.097,37.097c0,14.561,8.437,27.183,20.675,33.252H41.63    c-4.142,0-7.5,3.358-7.5,7.5s3.358,7.5,7.5,7.5h296.653c0.644,13.148-0.251,26.331-2.694,39.431    c-5.409,28.996-18.462,57.752-38.796,85.469c-7.888,10.753-20.547,17.172-33.862,17.172H93.198    c-13.315,0-25.974-6.419-33.862-17.172c-20.334-27.717-33.387-56.474-38.796-85.469c-4.311-23.109-3.813-46.479,1.48-69.46    c7.367-31.984,22.134-54.478,27.559-61.967h101.248v7.148c0,20.455,16.642,37.097,37.097,37.097    c20.455,0,37.097-16.642,37.097-37.097v-7.148h81.53c5.424,7.488,20.192,29.983,27.559,61.967    C335.259,324.218,336.169,329.23,336.866,334.253z M255.193,301.001c0-12.185,9.913-22.097,22.097-22.097    c12.184,0,22.097,9.913,22.097,22.097c0,12.184-9.913,22.097-22.097,22.097C265.106,323.098,255.193,313.185,255.193,301.001z     M310.272,242.258h-19.891c13.428-5.082,23.163-17.739,23.952-32.732c5.456,7.51,11.498,15.411,17.897,23.492    C326.465,238.88,318.589,242.258,310.272,242.258z"/>
	</g>
</g>















</svg>
