<?xml version="1.0" encoding="UTF-8" standalone="no"?>
<!DOCTYPE svg PUBLIC "-//W3C//DTD SVG 1.1//EN" "http://www.w3.org/Graphics/SVG/1.1/DTD/svg11.dtd">
<svg version="1.1" xmlns="http://www.w3.org/2000/svg" xmlns:xlink="http://www.w3.org/1999/xlink" preserveAspectRatio="xMidYMid meet" viewBox="525.2958972819087 189.24681516120503 73.68940493944854 70.55415904242503" width="69.69" height="66.55"><defs><path d="M534.13 205.92C534.13 205.92 516.74 226.9 535.65 252.67C537.55 255.26 540.58 256.8 543.8 256.8C547.27 256.8 575.01 256.8 578.48 256.8C581.7 256.8 584.73 255.26 586.63 252.67C605.54 226.9 588.15 205.92 588.15 205.92C577.35 205.92 539.53 205.92 534.13 205.92Z" id="lnxdlbLAZ"></path><path d="M588.15 205.92C588.15 205.92 588.15 205.92 588.15 205.92L588.15 205.92C555.74 205.92 537.73 205.92 534.13 205.92C534.13 205.92 516.74 226.9 535.65 252.67C537.55 255.26 540.58 256.8 543.8 256.8C545.77 256.8 561.51 256.8 563.48 256.8C557.84 250.59 554.83 244.05 553.31 238.17C550.93 229 556.31 219.56 565.44 217.03C578.34 213.46 583.61 208.14 588.15 205.92Z" id="c12fCuBv7M"></path><path d="M534.13 205.92C529.82 205.92 526.3 202.39 526.3 198.08C526.3 198.08 526.3 198.08 526.3 198.08C526.3 193.77 529.82 190.25 534.13 190.25C539.53 190.25 582.75 190.25 588.15 190.25C592.46 190.25 595.99 193.77 595.99 198.08C595.99 198.08 595.99 198.08 595.99 198.08C595.99 202.39 592.46 205.92 588.15 205.92C577.35 205.92 539.53 205.92 534.13 205.92Z" id="f6UDjRmuPO"></path><path d="M542.22 198.08C542.22 193.77 545.74 190.25 550.05 190.25C548.46 190.25 535.72 190.25 534.13 190.25C529.82 190.25 526.3 193.77 526.3 198.08C526.3 198.08 526.3 198.08 526.3 198.08C526.3 202.39 529.82 205.92 534.13 205.92C535.72 205.92 548.46 205.92 550.05 205.92C545.74 205.92 542.22 202.39 542.22 198.08C542.22 198.08 542.22 198.08 542.22 198.08Z" id="c5XFJSuFtb"></path><path d="M543.8 256.8C547.27 256.8 575.01 256.8 578.48 256.8C581.7 256.8 584.73 255.26 586.63 252.67C594.31 242.2 596 232.52 595.3 224.71C588.47 224.71 533.81 224.71 526.98 224.71C526.28 232.52 527.97 242.2 535.65 252.67C537.56 255.26 540.58 256.8 543.8 256.8Z" id="g370J99iZZ"></path><path d="M535.65 252.67C537.55 255.26 540.58 256.8 543.8 256.8C545.77 256.8 561.51 256.8 563.48 256.8C557.84 250.59 554.83 244.05 553.31 238.17C552.08 233.43 552.93 228.61 555.3 224.71C553.41 224.71 543.97 224.71 526.98 224.71C527.64 236.37 530.53 245.69 535.65 252.67Z" id="b52seVQjwF"></path></defs><g><g><use xlink:href="#lnxdlbLAZ" opacity="1" fill="#bdebff" fill-opacity="1"></use><g><use xlink:href="#lnxdlbLAZ" opacity="1" fill-opacity="0" stroke="#000000" stroke-width="1" stroke-opacity="0"></use></g></g><g><use xlink:href="#c12fCuBv7M" opacity="1" fill="#92d8ff" fill-opacity="1"></use><g><use xlink:href="#c12fCuBv7M" opacity="1" fill-opacity="0" stroke="#000000" stroke-width="1" stroke-opacity="0"></use></g></g><g><use xlink:href="#f6UDjRmuPO" opacity="1" fill="#d7f3ff" fill-opacity="1"></use><g><use xlink:href="#f6UDjRmuPO" opacity="1" fill-opacity="0" stroke="#000000" stroke-width="1" stroke-opacity="0"></use></g></g><g><use xlink:href="#c5XFJSuFtb" opacity="1" fill="#bdebff" fill-opacity="1"></use><g><use xlink:href="#c5XFJSuFtb" opacity="1" fill-opacity="0" stroke="#000000" stroke-width="1" stroke-opacity="0"></use></g></g><g><use xlink:href="#g370J99iZZ" opacity="1" fill="#ffcd00" fill-opacity="1"></use><g><use xlink:href="#g370J99iZZ" opacity="1" fill-opacity="0" stroke="#000000" stroke-width="1" stroke-opacity="0"></use></g></g><g><use xlink:href="#b52seVQjwF" opacity="1" fill="#ffb000" fill-opacity="1"></use><g><use xlink:href="#b52seVQjwF" opacity="1" fill-opacity="0" stroke="#000000" stroke-width="1" stroke-opacity="0"></use></g></g></g></svg>