<?xml version="1.0" encoding="UTF-8" standalone="no"?>
<!DOCTYPE svg PUBLIC "-//W3C//DTD SVG 1.1//EN" "http://www.w3.org/Graphics/SVG/1.1/DTD/svg11.dtd">
<svg version="1.1" xmlns="http://www.w3.org/2000/svg" xmlns:xlink="http://www.w3.org/1999/xlink" preserveAspectRatio="xMidYMid meet" viewBox="350.5592725890616 272.0921434311741 73.68940493944842 70.554159042425" width="69.69" height="66.55"><defs><path d="M359.4 288.76C359.4 288.76 342.01 309.74 360.91 335.51C362.82 338.11 365.85 339.65 369.07 339.65C372.53 339.65 400.27 339.65 403.74 339.65C406.96 339.65 409.99 338.11 411.89 335.51C430.8 309.74 413.41 288.76 413.41 288.76C402.61 288.76 364.8 288.76 359.4 288.76Z" id="f96ky7U7E4"></path><path d="M413.41 288.76C413.41 288.76 413.41 288.76 413.41 288.76L413.41 288.76C381 288.76 363 288.76 359.4 288.76C359.4 288.76 342.01 309.74 360.91 335.51C362.82 338.11 365.85 339.65 369.07 339.65C371.03 339.65 386.78 339.65 388.75 339.65C383.1 333.44 380.1 326.89 378.57 321.02C376.19 311.85 381.57 302.4 390.7 299.88C403.61 296.31 408.87 290.99 413.41 288.76Z" id="b47PlC7ILn"></path><path d="M359.4 288.76C355.09 288.76 351.56 285.24 351.56 280.93C351.56 280.93 351.56 280.93 351.56 280.93C351.56 276.62 355.09 273.09 359.4 273.09C364.8 273.09 408.01 273.09 413.41 273.09C417.72 273.09 421.25 276.62 421.25 280.93C421.25 280.93 421.25 280.93 421.25 280.93C421.25 285.24 417.72 288.76 413.41 288.76C402.61 288.76 364.8 288.76 359.4 288.76Z" id="cLVYYNTcg"></path><path d="M367.48 280.93C367.48 276.62 371.01 273.09 375.32 273.09C373.72 273.09 360.99 273.09 359.4 273.09C355.09 273.09 351.56 276.62 351.56 280.93C351.56 280.93 351.56 280.93 351.56 280.93C351.56 285.24 355.09 288.76 359.4 288.76C360.99 288.76 373.72 288.76 375.32 288.76C371.01 288.76 367.48 285.24 367.48 280.93C367.48 280.93 367.48 280.93 367.48 280.93Z" id="c33rSonSG"></path><path d="M369.07 339.65C372.53 339.65 400.27 339.65 403.74 339.65C406.96 339.65 409.99 338.11 411.89 335.51C419.58 325.04 421.27 315.36 420.57 307.56C413.73 307.56 359.07 307.56 352.24 307.56C351.54 315.36 353.23 325.04 360.91 335.51C362.82 338.11 365.85 339.65 369.07 339.65Z" id="e1lst3BAOo"></path><path d="M360.91 335.51C362.82 338.11 365.85 339.65 369.07 339.65C371.03 339.65 386.78 339.65 388.75 339.65C383.1 333.44 380.1 326.89 378.57 321.02C377.34 316.27 378.19 311.45 380.56 307.56C378.67 307.56 369.23 307.56 352.24 307.56C352.9 319.21 355.79 328.53 360.91 335.51Z" id="a7UWVokMIR"></path></defs><g><g><use xlink:href="#f96ky7U7E4" opacity="1" fill="#d5d5d5" fill-opacity="1"></use><g><use xlink:href="#f96ky7U7E4" opacity="1" fill-opacity="0" stroke="#000000" stroke-width="1" stroke-opacity="0"></use></g></g><g><use xlink:href="#b47PlC7ILn" opacity="1" fill="#b6b6b6" fill-opacity="1"></use></g><g><use xlink:href="#cLVYYNTcg" opacity="1" fill="#d5d5d5" fill-opacity="1"></use><g><use xlink:href="#cLVYYNTcg" opacity="1" fill-opacity="0" stroke="#000000" stroke-width="1" stroke-opacity="0"></use></g></g><g><use xlink:href="#c33rSonSG" opacity="1" fill="#b6b6b6" fill-opacity="1"></use><g><use xlink:href="#c33rSonSG" opacity="1" fill-opacity="0" stroke="#000000" stroke-width="1" stroke-opacity="0"></use></g></g><g><use xlink:href="#e1lst3BAOo" opacity="1" fill="#636360" fill-opacity="1"></use></g><g><use xlink:href="#a7UWVokMIR" opacity="1" fill="#535353" fill-opacity="1"></use></g></g></svg>