<?xml version="1.0" encoding="UTF-8" standalone="no"?>
<!DOCTYPE svg PUBLIC "-//W3C//DTD SVG 1.1//EN" "http://www.w3.org/Graphics/SVG/1.1/DTD/svg11.dtd">
<svg version="1.1" xmlns="http://www.w3.org/2000/svg" xmlns:xlink="http://www.w3.org/1999/xlink" preserveAspectRatio="xMidYMid meet" viewBox="311.4484059223888 517.4016510534085 63.11086666667279 60.45153699744674" width="59.11" height="56.45"><defs><path d="M319.09 531.69C319.09 531.69 304.35 549.49 320.38 571.35C322 573.55 324.57 574.85 327.3 574.85C330.24 574.85 353.77 574.85 356.71 574.85C359.44 574.85 362.01 573.55 363.62 571.35C379.66 549.49 364.91 531.69 364.91 531.69C355.75 531.69 323.68 531.69 319.09 531.69Z" id="f7rV7FhmD"></path><path d="M319.09 531.69C315.44 531.69 312.45 528.7 312.45 525.05C312.45 525.05 312.45 525.05 312.45 525.05C312.45 521.39 315.44 518.4 319.09 518.4C323.68 518.4 360.33 518.4 364.91 518.4C368.57 518.4 371.56 521.39 371.56 525.05C371.56 525.05 371.56 525.05 371.56 525.05C371.56 528.7 368.57 531.69 364.91 531.69C355.75 531.69 323.68 531.69 319.09 531.69Z" id="b11vmAAqPU"></path><path d="M364.91 531.69C364.91 531.69 364.91 531.69 364.91 531.69L364.91 531.69C337.42 531.69 322.15 531.69 319.09 531.69C319.09 531.69 304.35 549.49 320.38 571.35C322 573.55 324.57 574.85 327.3 574.85C328.97 574.85 342.32 574.85 343.99 574.85C339.21 569.59 336.65 564.04 335.36 559.05C333.34 551.27 337.91 543.26 345.65 541.12C356.6 538.09 361.06 533.58 364.91 531.69Z" id="a6fjVjseEb"></path><path d="M325.95 525.05C325.95 521.39 328.94 518.4 332.6 518.4C331.25 518.4 320.45 518.4 319.09 518.4C315.44 518.4 312.45 521.39 312.45 525.05C312.45 525.05 312.45 525.05 312.45 525.05C312.45 528.7 315.44 531.69 319.09 531.69C320.45 531.69 331.25 531.69 332.6 531.69C328.94 531.69 325.95 528.7 325.95 525.05C325.95 525.05 325.95 525.05 325.95 525.05Z" id="bjx4WgP2A"></path><path d="M327.3 574.85C330.24 574.85 353.77 574.85 356.71 574.85C359.44 574.85 362.01 573.55 363.62 571.35C370.14 562.46 371.57 554.25 370.98 547.64C365.18 547.64 318.82 547.64 313.03 547.64C312.43 554.25 313.87 562.46 320.38 571.35C322 573.55 324.57 574.85 327.3 574.85Z" id="botoIOBY0"></path><path d="M320.38 571.35C322 573.55 324.57 574.85 327.3 574.85C328.97 574.85 342.32 574.85 343.99 574.85C339.21 569.59 336.65 564.04 335.36 559.05C334.32 555.03 335.04 550.94 337.05 547.64C335.45 547.64 327.44 547.64 313.03 547.64C313.59 557.52 316.04 565.43 320.38 571.35Z" id="l6LH6Ob1a"></path><path d="M357.28 561.3C357.28 561.08 357.28 559.35 357.28 559.14C357.28 558.42 356.7 557.84 355.98 557.84C355.26 557.84 354.68 558.42 354.68 559.14C354.68 559.35 354.68 561.08 354.68 561.3C354.68 562.01 355.26 562.6 355.98 562.6C356.7 562.6 357.28 562.01 357.28 561.3Z" id="a38djQkixk"></path><path d="M329.33 561.3C329.33 561.08 329.33 559.35 329.33 559.14C329.33 558.42 328.75 557.84 328.03 557.84C327.31 557.84 326.73 558.42 326.73 559.14C326.73 559.35 326.73 561.08 326.73 561.3C326.73 562.01 327.31 562.6 328.03 562.6C328.75 562.6 329.33 562.01 329.33 561.3Z" id="a39c27cmS"></path><path d="M342 563.96C343.69 563.96 345.37 563.41 346.77 562.32C347.34 561.88 347.44 561.07 347 560.5C346.56 559.93 345.75 559.83 345.18 560.27C343.31 561.72 340.7 561.72 338.83 560.27C338.26 559.83 337.45 559.93 337.01 560.5C336.57 561.07 336.67 561.88 337.24 562.32C338.64 563.41 340.32 563.96 342 563.96Z" id="b4RYGwBnsQ"></path><path d="M365.13 531.69C368.02 531.51 371.41 529.7 371.36 524.64C371.32 521.27 369.55 519.19 366.04 518.4C340.48 518.4 324.5 518.4 318.11 518.4C317.92 518.4 317.74 518.42 317.55 518.47C314.26 519.26 312.62 521.58 312.62 525.42C312.62 529.39 314.96 531.48 319.65 531.69C348.04 531.81 363.2 531.81 365.13 531.69Z" id="a340de2BDX"></path></defs><g><g><use xlink:href="#f7rV7FhmD" opacity="1" fill="#bdebff" fill-opacity="1"></use><g><use xlink:href="#f7rV7FhmD" opacity="1" fill-opacity="0" stroke="#000000" stroke-width="1" stroke-opacity="0"></use></g></g><g><use xlink:href="#b11vmAAqPU" opacity="1" fill="#d7f3ff" fill-opacity="1"></use><g><use xlink:href="#b11vmAAqPU" opacity="1" fill-opacity="0" stroke="#000000" stroke-width="1" stroke-opacity="0"></use></g></g><g><use xlink:href="#a6fjVjseEb" opacity="1" fill="#92d8ff" fill-opacity="1"></use><g><use xlink:href="#a6fjVjseEb" opacity="1" fill-opacity="0" stroke="#000000" stroke-width="1" stroke-opacity="0"></use></g></g><g><use xlink:href="#bjx4WgP2A" opacity="1" fill="#bdebff" fill-opacity="1"></use><g><use xlink:href="#bjx4WgP2A" opacity="1" fill-opacity="0" stroke="#000000" stroke-width="1" stroke-opacity="0"></use></g></g><g><use xlink:href="#botoIOBY0" opacity="1" fill="#ffcd00" fill-opacity="1"></use><g><use xlink:href="#botoIOBY0" opacity="1" fill-opacity="0" stroke="#000000" stroke-width="1" stroke-opacity="0"></use></g></g><g><use xlink:href="#l6LH6Ob1a" opacity="1" fill="#ffb000" fill-opacity="1"></use><g><use xlink:href="#l6LH6Ob1a" opacity="1" fill-opacity="0" stroke="#000000" stroke-width="1" stroke-opacity="0"></use></g></g><g><use xlink:href="#a38djQkixk" opacity="1" fill="#000000" fill-opacity="1"></use><g><use xlink:href="#a38djQkixk" opacity="1" fill-opacity="0" stroke="#000000" stroke-width="1" stroke-opacity="0"></use></g></g><g><use xlink:href="#a39c27cmS" opacity="1" fill="#000000" fill-opacity="1"></use><g><use xlink:href="#a39c27cmS" opacity="1" fill-opacity="0" stroke="#000000" stroke-width="1" stroke-opacity="0"></use></g></g><g><use xlink:href="#b4RYGwBnsQ" opacity="1" fill="#000000" fill-opacity="1"></use><g><use xlink:href="#b4RYGwBnsQ" opacity="1" fill-opacity="0" stroke="#000000" stroke-width="1" stroke-opacity="0"></use></g></g><g><use xlink:href="#a340de2BDX" opacity="1" fill="#d7f3ff" fill-opacity="1"></use></g></g></svg>